<svg xmlns="http://www.w3.org/2000/svg" width="50.87" height="50.69" viewBox="0 0 50.87 50.69">
  <path id="Path_122" data-name="Path 122" d="M837.161,1169.65h-17.08l9.4-9.4-2.16-2.16-10.02,10.02-10.009-10.02-2.161,2.16,9.4,9.4h-17.09a5.587,5.587,0,0,0-5.57,5.58V1203.2a5.58,5.58,0,0,0,5.57,5.579h39.72a5.582,5.582,0,0,0,5.58-5.579V1175.23A5.589,5.589,0,0,0,837.161,1169.65Zm-3.04,25.75a2.03,2.03,0,1,1,2.03-2.03A2.03,2.03,0,0,1,834.121,1195.4Zm0-10.65a1.525,1.525,0,1,1-1.52,1.53A1.531,1.531,0,0,1,834.121,1184.75Zm-1.52-5.569a1.525,1.525,0,1,1,1.52,1.53A1.519,1.519,0,0,1,832.6,1179.181Zm-7.089,26.549H797.441a2.531,2.531,0,0,1-2.52-2.529V1175.23a2.521,2.521,0,0,1,2.52-2.519h28.071Z" transform="translate(-791.871 -1158.09)" fill="#694eff"/>
</svg>
