<svg xmlns="http://www.w3.org/2000/svg" width="51.16" height="51.16" viewBox="0 0 51.16 51.16">
  <g id="Group_109" data-name="Group 109" transform="translate(-218.655 -1157.861)">
    <g id="Group_108" data-name="Group 108">
      <path id="Path_128" data-name="Path 128" d="M264.2,1162.041h-6v-4.18h-3.08v4.18h-21.78v-4.18h-3.08v4.18h-6a5.614,5.614,0,0,0-5.61,5.61v35.76a5.608,5.608,0,0,0,5.61,5.61H264.2a5.608,5.608,0,0,0,5.61-5.61v-35.76A5.614,5.614,0,0,0,264.2,1162.041Zm-33.73,43.91h-6.21a2.544,2.544,0,0,1-2.54-2.54v-4.57h8.75Zm0-10.19h-8.75v-7.11h8.75Zm0-10.19h-8.75v-7.11h8.75Zm12.22,20.38h-9.15v-7.11h9.15Zm0-10.19h-9.15v-7.11h9.15Zm0-10.19h-9.15v-7.11h9.15Zm12.23,20.38h-9.15v-7.11h9.15Zm0-10.19h-9.15v-7.11h9.15Zm0-10.19h-9.15v-7.11h9.15Zm11.82,17.84a2.544,2.544,0,0,1-2.54,2.54h-6.21v-7.11h8.75Zm0-7.65h-8.75v-7.11h8.75Zm0-10.19h-8.75v-7.11h8.75Zm0-10.19h-45.02v-7.73a2.544,2.544,0,0,1,2.54-2.54h6v4.08h3.08v-4.08h21.78v4.08h3.08v-4.08h6a2.544,2.544,0,0,1,2.54,2.54Z" fill="#694eff"/>
      <path id="Path_129" data-name="Path 129" d="M230.475,1198.841v7.11h-6.21a2.544,2.544,0,0,1-2.54-2.54v-4.57Z" fill="#694eff"/>
      <rect id="Rectangle_70" data-name="Rectangle 70" width="8.75" height="7.11" transform="translate(221.725 1178.461)" fill="#694eff"/>
      <rect id="Rectangle_71" data-name="Rectangle 71" width="8.75" height="7.11" transform="translate(221.725 1188.651)" fill="#694eff"/>
      <rect id="Rectangle_72" data-name="Rectangle 72" width="8.75" height="7.11" transform="translate(257.995 1178.461)" fill="#694eff"/>
    </g>
  </g>
</svg>
