<svg xmlns="http://www.w3.org/2000/svg" width="45.121" height="45.12" viewBox="0 0 45.121 45.12">
  <g id="Group_117" data-name="Group 117" transform="translate(-1081.281 -1113.124)">
    <g id="Group_116" data-name="Group 116">
      <g id="Group_114" data-name="Group 114">
        <g id="Group_113" data-name="Group 113">
          <path id="Path_132" data-name="Path 132" d="M1104.463,1120.774v2.82a11.984,11.984,0,0,1,11.46,11.47h2.83A14.816,14.816,0,0,0,1104.463,1120.774Zm-.5,7.14v3.82a3.837,3.837,0,0,1,3.83,3.83h3.82A7.656,7.656,0,0,0,1103.963,1127.914Zm15.87-8.22a22.219,22.219,0,0,0-15.37-6.57v2.82a19.656,19.656,0,0,1,19.12,19.12h2.82A22.262,22.262,0,0,0,1119.833,1119.694Z" fill="#694eff"/>
        </g>
      </g>
      <g id="Group_115" data-name="Group 115">
        <path id="Path_133" data-name="Path 133" d="M1123.583,1149.934a5.9,5.9,0,0,1-1.88,4.13c-3.68,3.68-8.8,4.18-12.47,4.18h-.38c-5.89-.05-12.02-3.23-18.23-9.44-6.14-6.14-9.29-12.24-9.34-18.13-.03-3.71.36-9.07,4.15-12.85a5.9,5.9,0,0,1,4.07-1.88h.06a4.454,4.454,0,0,1,3.87,2.29l1.49,2.67c1.33,2.79,1.08,3.86.25,4.7l-5.72,5.92.21.77a27.78,27.78,0,0,0,6.61,11.24l.06.08a26.711,26.711,0,0,0,11.11,6.42l.8.19,5.69-5.9c.91-.91,1.96-1.17,4.65.22l2.71,1.52A4.434,4.434,0,0,1,1123.583,1149.934Z" fill="#694eff"/>
      </g>
      <path id="Path_134" data-name="Path 134" d="M1103.961,1127.411h-.5v4.82h.5a3.335,3.335,0,0,1,3.33,3.33v.5h4.82v-.5A8.158,8.158,0,0,0,1103.961,1127.411Zm4.3,7.65a4.334,4.334,0,0,0-3.8-3.8v-2.83a7.138,7.138,0,0,1,6.63,6.63Z" fill="#694eff"/>
    </g>
  </g>
</svg>
