<svg xmlns="http://www.w3.org/2000/svg" width="57.28" height="52.83" viewBox="0 0 57.28 52.83">
  <path id="Path_130" data-name="Path 130" d="M1414.218,1180.111c-3.42-1.36-6.77-2.62-8.05-3.1l-.19-.07-6.04-12.05a6.7,6.7,0,0,0-6.03-3.31h-1.71v-4.56h-4.55v4.56h-15.71a6.812,6.812,0,0,0-6.78,4.8l-3.42,12.08v20.51a6.338,6.338,0,0,0,6.33,6.33h2.45l.12.33a6.326,6.326,0,0,0,11.93,0l.12-.33h14.81l.12.33a6.326,6.326,0,0,0,11.93,0l.12-.33h9.35v-18.12A7.576,7.576,0,0,0,1414.218,1180.111Zm-45.64-12.77a3.326,3.326,0,0,1,3.36-2.21h9.38v11.8h-15.45Zm46.88,34.4h-5.79l-.12-.33a6.326,6.326,0,0,0-11.93,0l-.12.33h-14.81l-.12-.33a6.326,6.326,0,0,0-11.93,0l-.12.33h-2.45a2.778,2.778,0,0,1-2.78-2.77v-18.49l40.1.04c1.53.57,4.55,1.71,7.52,2.89a4.039,4.039,0,0,1,2.55,3.77Z" transform="translate(-1361.738 -1157.021)" fill="#694eff"/>
</svg>
