<svg xmlns="http://www.w3.org/2000/svg" width="50.79" height="50.789" viewBox="0 0 50.79 50.789">
  <path id="Path_131" data-name="Path 131" d="M1697.239,1165.35v3.071a2.519,2.519,0,0,1,2.03,2.469v24.281a2.54,2.54,0,0,1-2.53,2.53h-4.64V1163.59a5.558,5.558,0,0,0-5.56-5.549h-19.25a5.556,5.556,0,0,0-5.55,5.549V1197.7h-4.65a2.531,2.531,0,0,1-2.52-2.53V1170.89a2.52,2.52,0,0,1,2.02-2.469v-3.071a5.568,5.568,0,0,0-5.07,5.54v24.281a5.578,5.578,0,0,0,5.57,5.569h18.3v5.051h-10.52v3.039h24.09v-3.039h-10.52v-5.051h18.3a5.578,5.578,0,0,0,5.57-5.569V1170.89A5.568,5.568,0,0,0,1697.239,1165.35Zm-27.41,11.92v-3.04H1684v3.04Zm7.09,5.05v3.04h-7.09v-3.04Zm-7.09-13.139v-3.051H1684v3.051Z" transform="translate(-1651.519 -1158.041)" fill="#694eff"/>
</svg>
