<svg xmlns="http://www.w3.org/2000/svg" width="45.95" height="45.949" viewBox="0 0 45.95 45.949">
  <g id="Group_124" data-name="Group 124" transform="translate(-507.796 -1160.461)">
    <g id="Group_123" data-name="Group 123">
      <g id="Group_122" data-name="Group 122">
        <g id="Group_121" data-name="Group 121">
          <g id="Group_120" data-name="Group 120">
            <path id="Path_136" data-name="Path 136" d="M548.746,1160.461h-35.94a5.01,5.01,0,0,0-5.01,5v35.949a5.017,5.017,0,0,0,5.01,5h26.01c-.62-.68-1.36-1.53-2.11-2.469l-.16-.2h-20.16l6.37-6.37-8.16-8.159,6.96-6.961,10.19,10.191a.463.463,0,0,1-.01-.111,14.223,14.223,0,0,1,.39-3.28l-3.15-3.15,21.85-21.84.19.891a2.27,2.27,0,0,1,.06.51v14.869a13.219,13.219,0,0,1,2.67,1.78v-16.649A5,5,0,0,0,548.746,1160.461Zm-29.76,36.909-6.35,6.37-.26-.039a2.336,2.336,0,0,1-1.91-2.291v-8.07l2.24-2.24Zm-8.52-7.8v-18.4l9.2,9.2Zm25.31-14.24-6.27-6.32-1.9,1.87,6.28,6.341-6.8,6.8-16.62-16.62v-1.939a2.342,2.342,0,0,1,2.34-2.331h35.17Zm9.3,8.51a8.726,8.726,0,0,0-8.67,8.76c0,2.371,1.33,5.27,3.96,8.6a41.481,41.481,0,0,0,3.8,4.189l.91.84.91-.84a41.449,41.449,0,0,0,3.81-4.189c2.62-3.331,3.95-6.23,3.95-8.6A8.726,8.726,0,0,0,545.076,1183.84Zm2.65,15.67c-.86,1.1-1.72,2.04-2.29,2.64l-.36.391-.37-.391c-1.69-1.79-5.63-6.32-5.63-9.55a6,6,0,1,1,12,0C551.076,1194.3,549.886,1196.76,547.726,1199.51Z" fill="#694eff"/>
            <path id="Path_137" data-name="Path 137" d="M545.076,1186.51a6.05,6.05,0,0,0-6,6.09c0,3.23,3.94,7.76,5.63,9.55l.37.391.36-.391c.57-.6,1.43-1.54,2.29-2.64,2.16-2.75,3.35-5.21,3.35-6.91A6.05,6.05,0,0,0,545.076,1186.51Zm.28,8.531a1.971,1.971,0,1,1,1.97-1.971A1.973,1.973,0,0,1,545.356,1195.041Z" fill="#694eff"/>
          </g>
        </g>
      </g>
    </g>
  </g>
</svg>
